<svg xmlns="http://www.w3.org/2000/svg" width="800" height="452" viewBox="0 0 800 452" font-family="Inter, Arial, sans-serif">
<rect width="800" height="452" fill="#FFFFFF" rx="12"/>
<text x="400" y="38" text-anchor="middle" font-size="18" font-weight="700" fill="#222222">Comparison</text>
<line x1="60" y1="50" x2="740" y2="50" stroke="#EEEEEE" stroke-width="1.5"/>
<rect x="40" y="65" width="340" height="332" fill="#EEEEEE" rx="8"/>
<rect x="40" y="65" width="340" height="40" fill="#BBBBBB" rx="8"/>
<rect x="40" y="85" width="340" height="20" fill="#BBBBBB"/>
<text x="210" y="91" text-anchor="middle" font-size="14" font-weight="700" fill="#222222">Fragmented Stack</text>
<circle cx="58" cy="127" r="4" fill="#999999"/>
<text x="70" y="131" font-size="12" fill="#222222">Analytics tool</text>
<circle cx="58" cy="163" r="4" fill="#999999"/>
<text x="70" y="167" font-size="12" fill="#222222">Session replay tool</text>
<circle cx="58" cy="199" r="4" fill="#999999"/>
<text x="70" y="203" font-size="12" fill="#222222">Error tracker</text>
<circle cx="58" cy="235" r="4" fill="#999999"/>
<text x="70" y="239" font-size="12" fill="#222222">Feature flags service</text>
<circle cx="58" cy="271" r="4" fill="#999999"/>
<text x="70" y="275" font-size="12" fill="#222222">Experimentation tool</text>
<circle cx="58" cy="307" r="4" fill="#999999"/>
<text x="70" y="311" font-size="12" fill="#222222">CDP and warehouse sync</text>
<circle cx="58" cy="343" r="4" fill="#999999"/>
<text x="70" y="347" font-size="12" fill="#222222">Custom identity stitching</text>
<circle cx="400" cy="226" r="16" fill="#D75656"/>
<text x="400" y="232" text-anchor="middle" font-size="18" font-weight="700" fill="#FFFFFF">→</text>
<rect x="420" y="65" width="340" height="332" fill="#EEEEEE" rx="8" stroke="#D75656" stroke-width="2"/>
<rect x="420" y="65" width="340" height="40" fill="#D75656" rx="8"/>
<rect x="420" y="85" width="340" height="20" fill="#D75656"/>
<text x="590" y="91" text-anchor="middle" font-size="14" font-weight="700" fill="#FFFFFF">PostHog Unified Stack</text>
<circle cx="438" cy="127" r="4" fill="#D75656"/>
<text x="450" y="131" font-size="12" fill="#222222">Single event pipeline</text>
<circle cx="438" cy="163" r="4" fill="#D75656"/>
<text x="450" y="167" font-size="12" fill="#222222">Product and web analytics</text>
<circle cx="438" cy="199" r="4" fill="#D75656"/>
<text x="450" y="203" font-size="12" fill="#222222">Session replay and error</text>
<text x="450" y="219" font-size="12" fill="#222222">tracking</text>
<circle cx="438" cy="235" r="4" fill="#D75656"/>
<text x="450" y="239" font-size="12" fill="#222222">Feature flags and experiments</text>
<circle cx="438" cy="271" r="4" fill="#D75656"/>
<text x="450" y="275" font-size="12" fill="#222222">Surveys, CDP, warehouse</text>
<circle cx="438" cy="307" r="4" fill="#D75656"/>
<text x="450" y="311" font-size="12" fill="#222222">Shared identity and cohorts</text>
<circle cx="438" cy="343" r="4" fill="#D75656"/>
<text x="450" y="347" font-size="12" fill="#222222">Fewer cross-tool joins</text>
<text x="210" y="440" text-anchor="middle" font-size="11" fill="#999999">Traditional Approach</text>
<text x="590" y="440" text-anchor="middle" font-size="11" fill="#D75656" font-weight="600">New Approach</text>
</svg>